<?xml version="1.0" encoding="utf-8"?><svg xmlns="http://www.w3.org/2000/svg" xmlns:xlink="http://www.w3.org/1999/xlink"><symbol viewBox="0 0 32 32" id="Cart1" xmlns="http://www.w3.org/2000/svg">
    <path d="M3 4.25C2.58579 4.25 2.25 4.58579 2.25 5C2.25 5.41421 2.58579 5.75 3 5.75V4.25ZM7 5L7.73859 4.86966C7.67534 4.51127 7.36393 4.25 7 4.25V5ZM10 22L9.26141 22.1303C9.32466 22.4887 9.63607 22.75 10 22.75V22ZM26 22.75C26.4142 22.75 26.75 22.4142 26.75 22C26.75 21.5858 26.4142 21.25 26 21.25V22.75ZM10 15.9167C9.58579 15.9167 9.25 16.2525 9.25 16.6667C9.25 17.0809 9.58579 17.4167 10 17.4167V15.9167ZM25.59 16.6667L25.5905 15.9167H25.59V16.6667ZM26.0806 16.2648L26.816 16.412L26.8161 16.4119L26.0806 16.2648ZM27.8806 7.26479L27.1452 7.1176L27.1452 7.1177L27.8806 7.26479ZM27.39 6.66667V7.41667L27.3905 7.41667L27.39 6.66667ZM8 5.91667C7.58579 5.91667 7.25 6.25245 7.25 6.66667C7.25 7.08088 7.58579 7.41667 8 7.41667V5.91667ZM11.25 26C11.25 26.1381 11.1381 26.25 11 26.25V27.75C11.9665 27.75 12.75 26.9665 12.75 26H11.25ZM11 26.25C10.8619 26.25 10.75 26.1381 10.75 26H9.25C9.25 26.9665 10.0335 27.75 11 27.75V26.25ZM10.75 26C10.75 25.8619 10.8619 25.75 11 25.75V24.25C10.0335 24.25 9.25 25.0335 9.25 26H10.75ZM11 25.75C11.1381 25.75 11.25 25.8619 11.25 26H12.75C12.75 25.0335 11.9665 24.25 11 24.25V25.75ZM25.25 26C25.25 26.1381 25.1381 26.25 25 26.25V27.75C25.9665 27.75 26.75 26.9665 26.75 26H25.25ZM25 26.25C24.8619 26.25 24.75 26.1381 24.75 26H23.25C23.25 26.9665 24.0335 27.75 25 27.75V26.25ZM24.75 26C24.75 25.8619 24.8619 25.75 25 25.75V24.25C24.0335 24.25 23.25 25.0335 23.25 26H24.75ZM25 25.75C25.1381 25.75 25.25 25.8619 25.25 26H26.75C26.75 25.0335 25.9665 24.25 25 24.25V25.75ZM3 5.75H7V4.25H3V5.75ZM6.26141 5.13034L9.26141 22.1303L10.7386 21.8697L7.73859 4.86966L6.26141 5.13034ZM10 22.75H26V21.25H10V22.75ZM10 17.4167H25.59V15.9167H10V17.4167ZM25.5895 17.4167C25.8786 17.4169 26.1588 17.3169 26.3824 17.1337L25.4319 15.9733C25.4767 15.9366 25.5327 15.9166 25.5905 15.9167L25.5895 17.4167ZM26.3824 17.1337C26.6061 16.9505 26.7593 16.6955 26.816 16.412L25.3452 16.1176C25.3566 16.0609 25.3872 16.0099 25.4319 15.9733L26.3824 17.1337ZM26.8161 16.4119L28.6161 7.41188L27.1452 7.1177L25.3452 16.1177L26.8161 16.4119ZM28.616 7.41198C28.6524 7.23055 28.6479 7.04332 28.6031 6.86381L27.1478 7.22724C27.1388 7.19133 27.1379 7.15389 27.1452 7.1176L28.616 7.41198ZM28.6031 6.86381C28.5583 6.68429 28.4741 6.51696 28.3568 6.37391L27.1971 7.32522C27.1736 7.29661 27.1568 7.26315 27.1478 7.22724L28.6031 6.86381ZM28.3568 6.37391C28.2395 6.23086 28.0918 6.11563 27.9245 6.03656L27.2835 7.39269C27.25 7.37687 27.2205 7.35383 27.1971 7.32522L28.3568 6.37391ZM27.9245 6.03656C27.7573 5.95749 27.5745 5.91654 27.3895 5.91667L27.3905 7.41667C27.3535 7.41669 27.317 7.4085 27.2835 7.39269L27.9245 6.03656ZM27.39 5.91667H8V7.41667H27.39V5.91667Z"/>
</symbol><symbol viewBox="0 0 66 24" id="Logo1" xmlns="http://www.w3.org/2000/svg">
    <rect width="65.3996" height="22.872" transform="translate(0 0.563995)"/>
    <path d="M14.1826 16.644C13.1266 17.916 8.016 18.064 6.096 18.064C2.304 18.064 0 15.616 0 12.064C0 8.536 2.328 6.088 6.096 6.088C7.92 6.088 13.1746 7.284 14.2306 8.556L8.832 10.048C8.064 9.208 7.224 8.872 6.096 8.872C4.488 8.872 3.096 10.168 3.096 12.064C3.096 14.128 4.392 15.28 6.096 15.28C7.104 15.28 8.256 14.896 8.88 14.104L14.1826 16.644Z"/>
    <path d="M28.8035 6.876L21.8195 23.436H18.3875L20.6195 18.276L15.7955 6.876H19.2035L21.6035 12.972L22.2995 15.156L22.9715 12.972L25.3715 6.876H28.8035Z"/>
    <path d="M36.6494 9.42C34.9214 9.42 33.6734 10.74 33.6734 12.54C33.6734 14.316 34.9214 15.636 36.6494 15.636C38.3294 15.636 39.4814 14.388 39.4814 12.54C39.4814 10.668 38.3294 9.42 36.6494 9.42ZM30.6734 18.156V0.563995H33.7214V6.828L33.6734 7.644C34.1774 6.972 35.7134 6.588 36.7694 6.588C40.5374 6.588 42.6495 9.348 42.6495 12.54C42.6495 16.14 40.4894 18.468 36.7694 18.468C35.8574 18.468 34.3934 18.036 33.7934 17.316L33.8174 17.964V18.156H30.6734Z"/>
    <path d="M55.3377 16.716C54.4497 17.868 52.4098 18.564 50.6578 18.564C46.8418 18.564 44.7058 15.948 44.7058 12.564C44.7058 9.108 46.8178 6.588 50.5378 6.588C54.2338 6.588 56.3457 9.108 56.3457 12.564C56.3457 12.948 56.3457 13.188 56.3217 13.524H47.8258C47.9938 14.94 49.0498 15.828 50.6578 15.828C51.8098 15.828 52.8897 15.444 53.5617 14.7L55.3377 16.716ZM47.8738 11.46H53.1537C53.0097 10.188 51.9538 9.324 50.5378 9.324C49.1218 9.324 47.9938 10.188 47.8738 11.46Z"/>
    <path d="M64.7516 9.708C64.1276 9.49199 63.5756 9.42 62.9276 9.42C62.4956 9.42 62.1356 9.444 61.7996 9.588V18.156H58.7036V7.38C59.6396 6.9 61.2476 6.564 62.8076 6.564C63.4796 6.564 64.6796 6.636 65.3996 6.9L64.7516 9.708Z"/>
</symbol><symbol viewBox="0 0 32 32" id="favorites" xmlns="http://www.w3.org/2000/svg">
    <path d="M15.488 24.69L15.0952 25.3289L15.0982 25.3307L15.488 24.69ZM16.512 24.69L16.9019 25.3307L16.9048 25.3289L16.512 24.69ZM16 10L15.3989 10.4486C15.5405 10.6383 15.7633 10.75 16 10.75C16.2367 10.75 16.4595 10.6383 16.6011 10.4486L16 10ZM11 6.25C7.83197 6.25 5.25 8.79464 5.25 11.95H6.75C6.75 9.63736 8.64603 7.75 11 7.75V6.25ZM5.25 11.95C5.25 13.1622 5.49279 15.1571 6.86435 17.5365C8.23344 19.9117 10.7037 22.6291 15.0952 25.3289L15.8808 24.0511C11.6593 21.4559 9.38556 18.9068 8.1639 16.7875C6.94471 14.6724 6.75 12.9448 6.75 11.95H5.25ZM15.0982 25.3307C15.3699 25.4961 15.6819 25.5835 16 25.5835V24.0835C15.9569 24.0835 15.9147 24.0717 15.8778 24.0493L15.0982 25.3307ZM16 25.5835C16.3181 25.5835 16.6301 25.4961 16.9018 25.3307L16.1222 24.0493C16.0853 24.0717 16.0431 24.0835 16 24.0835V25.5835ZM16.9048 25.3289C21.2963 22.6291 23.7666 19.9117 25.1357 17.5365C26.5072 15.1571 26.75 13.1622 26.75 11.95H25.25C25.25 12.9448 25.0553 14.6724 23.8361 16.7875C22.6144 18.9068 20.3407 21.4559 16.1192 24.0511L16.9048 25.3289ZM26.75 11.95C26.75 8.79464 24.168 6.25 21 6.25V7.75C23.354 7.75 25.25 9.63736 25.25 11.95H26.75ZM21 6.25C19.3584 6.25 17.9392 7.13256 16.986 7.92256C16.4988 8.32639 16.1064 8.72849 15.8354 9.02961C15.6995 9.18066 15.5931 9.30757 15.5194 9.3983C15.4825 9.4437 15.4538 9.48014 15.4336 9.50614C15.4235 9.51914 15.4155 9.52953 15.4097 9.53714C15.4068 9.54094 15.4045 9.54405 15.4027 9.54643C15.4018 9.54763 15.401 9.54864 15.4004 9.54947C15.4001 9.54989 15.3998 9.55026 15.3996 9.55058C15.3994 9.55074 15.3993 9.55095 15.3992 9.55103C15.3991 9.55123 15.3989 9.55141 16 10C16.6011 10.4486 16.6009 10.4488 16.6008 10.4489C16.6008 10.4489 16.6007 10.4491 16.6006 10.4491C16.6005 10.4493 16.6005 10.4494 16.6004 10.4494C16.6003 10.4495 16.6004 10.4495 16.6006 10.4492C16.601 10.4487 16.6019 10.4475 16.6033 10.4457C16.6061 10.4419 16.6111 10.4355 16.6181 10.4265C16.632 10.4085 16.6541 10.3805 16.6838 10.3439C16.7434 10.2706 16.8334 10.1631 16.9505 10.0329C17.1857 9.77151 17.5256 9.42361 17.9432 9.07744C18.7998 8.36744 19.8806 7.75 21 7.75V6.25ZM16 10C16.6011 9.55141 16.6009 9.55123 16.6008 9.55103C16.6007 9.55095 16.6006 9.55074 16.6004 9.55058C16.6002 9.55026 16.5999 9.54989 16.5996 9.54947C16.599 9.54864 16.5982 9.54763 16.5973 9.54643C16.5955 9.54405 16.5932 9.54094 16.5903 9.53714C16.5845 9.52953 16.5765 9.51914 16.5664 9.50614C16.5462 9.48014 16.5175 9.4437 16.4806 9.3983C16.4069 9.30757 16.3005 9.18066 16.1646 9.02961C15.8936 8.72849 15.5012 8.32639 15.014 7.92256C14.0608 7.13256 12.6416 6.25 11 6.25V7.75C12.1194 7.75 13.2002 8.36744 14.0568 9.07744C14.4744 9.42361 14.8143 9.77151 15.0495 10.0329C15.1666 10.1631 15.2566 10.2706 15.3162 10.3439C15.3459 10.3805 15.368 10.4085 15.3819 10.4265C15.3889 10.4355 15.3939 10.4419 15.3967 10.4457C15.3981 10.4475 15.399 10.4487 15.3994 10.4492C15.3996 10.4495 15.3997 10.4495 15.3996 10.4494C15.3995 10.4494 15.3995 10.4493 15.3994 10.4491C15.3993 10.4491 15.3992 10.4489 15.3992 10.4489C15.3991 10.4488 15.3989 10.4486 16 10Z"/>
</symbol><symbol viewBox="0 0 24 25" id="heart" xmlns="http://www.w3.org/2000/svg">
    <path fill-rule="evenodd" clip-rule="evenodd" d="M12.6924 7.58373C12.3055 7.95505 11.6945 7.95505 11.3076 7.58373L10.6152 6.91927C9.80477 6.14154 8.70994 5.66667 7.5 5.66667C5.01472 5.66667 3 7.68139 3 10.1667C3 12.5493 4.28979 14.5167 6.15176 16.1332C8.01532 17.7511 10.2434 18.8241 11.5746 19.3717C11.853 19.4862 12.147 19.4862 12.4254 19.3717C13.7566 18.8241 15.9847 17.7511 17.8482 16.1332C19.7102 14.5167 21 12.5493 21 10.1667C21 7.68139 18.9853 5.66667 16.5 5.66667C15.2901 5.66667 14.1952 6.14154 13.3848 6.91927L12.6924 7.58373ZM12 5.47624C10.8321 4.35548 9.24649 3.66667 7.5 3.66667C3.91015 3.66667 1 6.57682 1 10.1667C1 16.5349 7.97034 20.0517 10.8138 21.2214C11.5796 21.5364 12.4204 21.5364 13.1862 21.2214C16.0297 20.0517 23 16.5349 23 10.1667C23 6.57682 20.0899 3.66667 16.5 3.66667C14.7535 3.66667 13.1679 4.35548 12 5.47624Z"/>
</symbol><symbol viewBox="0 0 24 24" id="heart-line" xmlns="http://www.w3.org/2000/svg">
    <path d="M12.001 4.52853C14.35 2.42 17.98 2.49 20.2426 4.75736C22.5053 7.02472 22.583 10.637 20.4786 12.993L11.9999 21.485L3.52138 12.993C1.41705 10.637 1.49571 7.01901 3.75736 4.75736C6.02157 2.49315 9.64519 2.41687 12.001 4.52853ZM18.827 6.1701C17.3279 4.66794 14.9076 4.60701 13.337 6.01687L12.0019 7.21524L10.6661 6.01781C9.09098 4.60597 6.67506 4.66808 5.17157 6.17157C3.68183 7.66131 3.60704 10.0473 4.97993 11.6232L11.9999 18.6543L19.0201 11.6232C20.3935 10.0467 20.319 7.66525 18.827 6.1701Z"/>
</symbol><symbol viewBox="0 0 24 24" id="id-card-line" xmlns="http://www.w3.org/2000/svg">
    <path d="M3 6H21V18H3V6ZM2 4C1.44772 4 1 4.44772 1 5V19C1 19.5523 1.44772 20 2 20H22C22.5523 20 23 19.5523 23 19V5C23 4.44772 22.5523 4 22 4H2ZM13 8H19V10H13V8ZM18 12H13V14H18V12ZM10.5 10C10.5 11.3807 9.38071 12.5 8 12.5C6.61929 12.5 5.5 11.3807 5.5 10C5.5 8.61929 6.61929 7.5 8 7.5C9.38071 7.5 10.5 8.61929 10.5 10ZM8 13.5C6.067 13.5 4.5 15.067 4.5 17H11.5C11.5 15.067 9.933 13.5 8 13.5Z"/>
</symbol><symbol viewBox="0 0 265.000000 265.000000" preserveAspectRatio="xMidYMid meet" id="logo" xmlns="http://www.w3.org/2000/svg">
    <g transform="translate(0.000000,265.000000) scale(0.100000,-0.100000)">
        <path d="M1160 2628 c-75 -39 -84 -60 -90 -211 -3 -73 -10 -140 -14 -151 -12 -24 -102 -66 -145 -66 -29 0 -46 12 -120 84 -90 89 -119 106 -178 106 -57 0 -94 -25 -205 -138 -164 -166 -167 -214 -23 -362 46 -47 86 -96 90 -111 7 -29 -27 -130 -52 -151 -11 -9 -59 -15 -147 -18 -143 -6 -178 -17 -220 -73 -20 -27 -21 -41 -21 -212 0 -170 2 -186 21 -211 46 -62 64 -69 209 -74 121 -5 136 -7 157 -27 31 -29 62 -115 53 -145 -4 -13 -45 -61 -90 -108 -97 -100 -116 -142 -96 -213 10 -33 38 -67 134 -163 100 -99 128 -122 158 -127 71 -11 104 6 198 96 103 99 126 108 199 77 83 -36 86 -43 92 -195 5 -145 12 -163 74 -209 23 -18 42 -21 129 -21 l102 0 5 185 5 185 249 3 249 2 81 -86 81 -86 0 -59 c0 -53 3 -62 33 -91 26 -27 40 -33 75 -33 54 0 94 26 114 73 13 32 14 42 2 77 -21 58 -70 89 -133 81 l-49 -5 -91 94 -91 95 -262 0 -263 0 0 170 0 170 -74 0 c-40 0 -89 2 -107 5 -26 4 -29 3 -14 -4 11 -5 46 -13 78 -16 l57 -8 -2 -346 -3 -346 -47 -3 c-58 -4 -111 19 -127 54 -6 14 -11 73 -11 132 0 146 -18 183 -109 230 -111 56 -151 45 -272 -74 -83 -81 -88 -84 -133 -84 -46 0 -48 2 -148 103 -55 56 -107 112 -116 125 -27 41 -9 79 82 172 101 103 116 140 92 224 -20 68 -52 114 -96 137 -27 15 -57 19 -141 19 -190 0 -199 11 -199 229 l0 151 29 32 29 33 134 5 c106 4 140 9 161 23 35 22 62 67 83 132 26 81 10 119 -92 225 -66 68 -86 96 -91 125 -6 36 -3 39 114 156 158 158 161 158 311 14 35 -33 73 -65 85 -72 35 -20 100 -15 158 11 99 44 119 86 119 247 0 105 1 110 29 141 25 29 35 32 95 36 l66 4 0 -349 0 -349 -37 -11 -38 -10 45 2 c100 4 89 -16 92 168 l3 162 268 5 269 5 20 25 c11 14 49 55 84 92 l64 67 53 -6 c47 -5 56 -2 84 21 45 38 58 83 38 132 -24 59 -59 79 -132 75 -13 -1 -37 -14 -55 -30 -30 -27 -33 -34 -33 -89 l0 -60 -79 -86 -78 -86 -254 0 -254 0 0 178 c0 125 -4 182 -12 190 -7 7 -42 12 -88 12 -59 0 -86 -5 -120 -22z m1047 -94 c15 -24 15 -29 2 -53 -28 -50 -109 -32 -109 25 0 55 76 75 107 28z m-15 -2346 c27 -22 30 -53 7 -81 -24 -32 -52 -34 -79 -7 -27 27 -26 65 2 84 27 19 49 20 70 4z"/>
        <path d="M2423 2199 c-18 -5 -45 -25 -60 -44 l-28 -35 -170 0 -170 0 -118 -117 -118 -118 37 -3 c35 -3 43 2 128 87 l91 91 162 0 162 0 16 -30 c30 -59 118 -79 170 -38 36 28 56 78 49 118 -7 33 -57 90 -79 90 -7 0 -19 2 -27 4 -7 2 -28 0 -45 -5z m82 -83 c37 -56 -36 -115 -87 -69 -10 9 -18 26 -18 39 0 53 76 75 105 30z"/>
        <path d="M910 1440 c-46 -91 -140 -302 -140 -315 0 -11 11 -15 38 -15 34 0 40 4 55 35 l17 35 93 0 93 0 17 -35 c15 -31 21 -35 57 -35 22 0 40 5 40 10 0 6 -37 89 -81 185 l-81 175 -44 0 c-41 0 -45 -3 -64 -40z m94 -122 c13 -29 21 -56 19 -60 -6 -11 -91 -10 -97 1 -7 10 35 111 46 111 5 0 19 -24 32 -52z"/>
        <path d="M1320 1295 l0 -185 168 2 167 3 0 40 0 40 -122 3 -122 3 -3 137 -3 137 -42 3 -43 3 0 -186z"/>
        <path d="M1710 1435 l0 -45 70 0 70 0 0 -140 0 -140 45 0 45 0 0 140 0 140 70 0 70 0 0 45 0 45 -185 0 -185 0 0 -45z"/>
        <path d="M2220 1343 c0 -155 10 -187 72 -220 47 -24 180 -24 230 0 65 33 73 54 76 215 l4 142 -46 0 -46 0 0 -125 c0 -154 -7 -165 -99 -165 -94 0 -100 9 -103 160 l-3 125 -42 3 -43 3 0 -138z"/>
        <path d="M1750 773 c0 -5 55 -61 122 -125 l123 -117 178 -1 c139 0 177 -3 177 -13 0 -25 57 -68 96 -74 30 -4 47 1 74 19 86 58 63 189 -38 215 -42 10 -101 -15 -124 -53 l-20 -34 -162 0 -161 0 -95 95 c-86 86 -98 95 -132 95 -21 0 -38 -3 -38 -7z m749 -179 c27 -34 26 -40 -4 -69 -29 -30 -49 -31 -75 -5 -27 27 -26 65 2 84 32 23 54 20 77 -10z"/>
    </g>
</symbol><symbol viewBox="0 0 25 24" id="search" xmlns="http://www.w3.org/2000/svg">
    <path d="M20.9331 20L17.1554 16.2156M19.2489 11.1579C19.2489 13.0563 18.4948 14.8769 17.1524 16.2193C15.81 17.5617 13.9894 18.3158 12.091 18.3158C10.1926 18.3158 8.37197 17.5617 7.0296 16.2193C5.68724 14.8769 4.93311 13.0563 4.93311 11.1579C4.93311 9.2595 5.68724 7.43886 7.0296 6.0965C8.37197 4.75413 10.1926 4 12.091 4C13.9894 4 15.81 4.75413 17.1524 6.0965C18.4948 7.43886 19.2489 9.2595 19.2489 11.1579V11.1579Z" stroke-width="1.5" stroke-linecap="round"/>
</symbol><symbol viewBox="0 0 24 24" id="search-line" xmlns="http://www.w3.org/2000/svg">
    <path d="M18.031 16.6168L22.3137 20.8995L20.8995 22.3137L16.6168 18.031C15.0769 19.263 13.124 20 11 20C6.032 20 2 15.968 2 11C2 6.032 6.032 2 11 2C15.968 2 20 6.032 20 11C20 13.124 19.263 15.0769 18.031 16.6168ZM16.0247 15.8748C17.2475 14.6146 18 12.8956 18 11C18 7.1325 14.8675 4 11 4C7.1325 4 4 7.1325 4 11C4 14.8675 7.1325 18 11 18C12.8956 18 14.6146 17.2475 15.8748 16.0247L16.0247 15.8748Z"/>
</symbol><symbol viewBox="0 0 32 32" id="user" xmlns="http://www.w3.org/2000/svg">
    <path d="M23.25 27C23.25 27.4142 23.5858 27.75 24 27.75C24.4142 27.75 24.75 27.4142 24.75 27H23.25ZM24 24.3333H24.75H24ZM19.4667 19V18.25V19ZM11.5333 19V18.25V19ZM7 24.3333H6.25H7ZM6.25 27C6.25 27.4142 6.58579 27.75 7 27.75C7.41421 27.75 7.75 27.4142 7.75 27H6.25ZM24.75 27V24.3333H23.25V27H24.75ZM24.75 24.3333C24.75 22.7558 24.2184 21.2231 23.2437 20.0764L22.1008 21.0478C22.8264 21.9015 23.25 23.0819 23.25 24.3333H24.75ZM23.2437 20.0764C22.2658 18.9259 20.9109 18.25 19.4667 18.25V19.75C20.4271 19.75 21.3783 20.1979 22.1008 21.0478L23.2437 20.0764ZM19.4667 18.25H11.5333V19.75H19.4667V18.25ZM11.5333 18.25C10.0891 18.25 8.7342 18.9259 7.75633 20.0764L8.89924 21.0478C9.6217 20.1979 10.5729 19.75 11.5333 19.75V18.25ZM7.75633 20.0764C6.78161 21.2231 6.25 22.7558 6.25 24.3333H7.75C7.75 23.0819 8.17362 21.9015 8.89924 21.0478L7.75633 20.0764ZM6.25 24.3333V27H7.75V24.3333H6.25ZM20.25 9.5C20.25 11.5711 18.5711 13.25 16.5 13.25V14.75C19.3995 14.75 21.75 12.3995 21.75 9.5H20.25ZM16.5 13.25C14.4289 13.25 12.75 11.5711 12.75 9.5H11.25C11.25 12.3995 13.6005 14.75 16.5 14.75V13.25ZM12.75 9.5C12.75 7.42893 14.4289 5.75 16.5 5.75V4.25C13.6005 4.25 11.25 6.6005 11.25 9.5H12.75ZM16.5 5.75C18.5711 5.75 20.25 7.42893 20.25 9.5H21.75C21.75 6.6005 19.3995 4.25 16.5 4.25V5.75Z"/>
</symbol><symbol viewBox="0 0 24 24" id="user-star-line" xmlns="http://www.w3.org/2000/svg">
    <path d="M12 14V16C8.68629 16 6 18.6863 6 22H4C4 17.5817 7.58172 14 12 14ZM12 13C8.685 13 6 10.315 6 7C6 3.685 8.685 1 12 1C15.315 1 18 3.685 18 7C18 10.315 15.315 13 12 13ZM12 11C14.21 11 16 9.21 16 7C16 4.79 14.21 3 12 3C9.79 3 8 4.79 8 7C8 9.21 9.79 11 12 11ZM18 21.5L15.0611 23.0451L15.6224 19.7725L13.2447 17.4549L16.5305 16.9775L18 14L19.4695 16.9775L22.7553 17.4549L20.3776 19.7725L20.9389 23.0451L18 21.5Z"/>
</symbol><symbol id="website" enable-background="new 0 0 497 497" viewBox="0 0 497 497" xmlns="http://www.w3.org/2000/svg">
    <g>
        <path d="m497 128.5v312c0 11.046-8.954 20-20 20h-457c-11.046 0-20-8.954-20-20v-312z"/>
        <g>
            <path d="m290.498 294.5c0-23.196-18.804-42-42-42-7.031 0-13.659 1.728-19.482 4.782-13.386 7.021-19.327 21.053-19.327 37.218 0 23.196 15.613 36.457 38.809 36.457 16.214 0 30.282-3.645 37.282-17.099 3.014-5.792 4.718-12.376 4.718-19.358z"/>
            <path d="m286.468 312.47c-6.73 14.21-21.2 24.03-37.97 24.03-23.2 0-42-18.8-42-42 0-16.77 9.82-31.24 24.03-37.97-2.59 5.45-4.03 11.54-4.03 17.97 0 23.2 18.8 42 42 42 6.43 0 12.52-1.44 17.97-4.03z"/>
        </g>
        <g>
            <path d="m429.496 294.5c0-23.196-18.804-42-42-42-7.031 0-13.659 1.728-19.482 4.782-13.386 7.021-19.327 21.053-19.327 37.218 0 23.196 15.613 36.457 38.809 36.457 16.214 0 30.282-3.645 37.282-17.099 3.014-5.792 4.718-12.376 4.718-19.358z"/>
            <path d="m425.466 312.47c-6.73 14.21-21.2 24.03-37.97 24.03-23.2 0-42-18.8-42-42 0-16.77 9.82-31.24 24.03-37.97-2.59 5.45-4.03 11.54-4.03 17.97 0 23.2 18.8 42 42 42 6.43 0 12.52-1.44 17.97-4.03z"/>
        </g>
        <path d="m497 148.5v-20l-276.011-12.798-220.989 12.798v20 292c0 11.046 8.954 20 20 20h15c-8.28 0-15-6.72-15-15v-291c0-3.314 2.686-6 6-6z"/>
        <g>
            <path d="m497 56.5v72.5h-497v-72.5c0-11.046 8.954-20 20-20h457c11.046 0 20 8.954 20 20z"/>
            <g>
                <path d="m227.758 108.5c-8.255 0-14.947-6.716-14.947-15s6.692-15 14.947-15h208.315c8.255 0 14.947 6.716 14.947 15s-6.692 15-14.947 15z"/>
                <ellipse cx="160.869" cy="93.5" rx="14.947" ry="15"/>
                <path d="m171.361 104.184 12.874-12.869-13.139 1.179z"/>
                <path d="m150.592 82.608 12.562-12.516-2.693 10.408z"/>
                <ellipse cx="98.034" cy="93.5" rx="14.947" ry="15"/>
                <path d="m108.553 104.157 12.382-12.499-12.674.836z"/>
                <path d="m87.757 82.608 12.371-12.459-2.502 10.351z"/>
                <ellipse cx="32.947" cy="93.5" rx="14.947" ry="15"/>
                <path d="m43.769 103.846 12.721-13.186-13.139 1.381z"/>
                <path d="m22.67 82.608 11.622-12.038-1.753 9.93z"/>
            </g>
            <ellipse cx="173.849" cy="80.5" rx="14.947" ry="15"/>
            <path d="m217.514 82.577 12.971-12.991-3.025 14.276z"/>
            <path d="m446.83 103.915 13.149-13.179-10.185 3.381z"/>
            <ellipse cx="110.946" cy="80.5" rx="14.947" ry="15"/>
            <ellipse cx="45.495" cy="80.5" rx="14.947" ry="15"/>
            <path d="m240.737 95.5c-8.255 0-14.947-6.716-14.947-15s6.692-15 14.947-15h208.315c8.255 0 14.947 6.716 14.947 15s-6.692 15-14.947 15z"/>
        </g>
        <path d="m135.893 215 226.628 2c5.523 0 10-4.477 10-10l3.479-7v-30c0-5.523-4.477-10-10-10h-224l-6.107 5c-5.523 0-10 4.477-10 10v30c0 5.523 4.477 10 10 10z"/>
        <path d="m376 200v10c0 5.523-4.477 10-10 10h-234c-5.523 0-10-4.477-10-10v-40c0-5.523 4.477-10 10-10h10v33c0 3.866 3.134 7 7 7z"/>
        <g>
            <path d="m151.5 294.5c0-23.196-18.804-42-42-42-7.031 0-13.659 1.728-19.482 4.782-13.386 7.021-19.327 21.053-19.327 37.218 0 23.196 15.613 36.457 38.809 36.457 16.214 0 30.282-3.645 37.282-17.099 3.014-5.792 4.718-12.376 4.718-19.358z"/>
            <path d="m147.47 312.47c-6.73 14.21-21.2 24.03-37.97 24.03-23.2 0-42-18.8-42-42 0-16.77 9.82-31.24 24.03-37.97-2.59 5.45-4.03 11.54-4.03 17.97 0 23.2 18.8 42 42 42 6.43 0 12.52-1.44 17.97-4.03z"/>
        </g>
        <g>
            <g>
                <path d="m149.5 374h-70c-4.142 0-7.5-3.358-7.5-7.5s3.358-7.5 7.5-7.5h70c4.142 0 7.5 3.358 7.5 7.5s-3.358 7.5-7.5 7.5z"/>
            </g>
            <g>
                <path d="m149.5 404h-80c-4.142 0-7.5-3.358-7.5-7.5s3.358-7.5 7.5-7.5h80c4.142 0 7.5 3.358 7.5 7.5s-3.358 7.5-7.5 7.5z"/>
            </g>
            <g>
                <path d="m149.5 434h-80c-4.142 0-7.5-3.358-7.5-7.5s3.358-7.5 7.5-7.5h80c4.142 0 7.5 3.358 7.5 7.5s-3.358 7.5-7.5 7.5z"/>
            </g>
        </g>
        <g>
            <g>
                <path d="m288.5 374h-70c-4.142 0-7.5-3.358-7.5-7.5s3.358-7.5 7.5-7.5h70c4.143 0 7.5 3.358 7.5 7.5s-3.357 7.5-7.5 7.5z"/>
            </g>
            <g>
                <path d="m288.5 404h-80c-4.142 0-7.5-3.358-7.5-7.5s3.358-7.5 7.5-7.5h80c4.143 0 7.5 3.358 7.5 7.5s-3.357 7.5-7.5 7.5z"/>
            </g>
            <g>
                <path d="m288.5 434h-80c-4.142 0-7.5-3.358-7.5-7.5s3.358-7.5 7.5-7.5h80c4.143 0 7.5 3.358 7.5 7.5s-3.357 7.5-7.5 7.5z"/>
            </g>
        </g>
        <g>
            <g>
                <path d="m427.5 374h-70c-4.143 0-7.5-3.358-7.5-7.5s3.357-7.5 7.5-7.5h70c4.143 0 7.5 3.358 7.5 7.5s-3.357 7.5-7.5 7.5z"/>
            </g>
            <g>
                <path d="m427.5 404h-80c-4.143 0-7.5-3.358-7.5-7.5s3.357-7.5 7.5-7.5h80c4.143 0 7.5 3.358 7.5 7.5s-3.357 7.5-7.5 7.5z"/>
            </g>
            <g>
                <path d="m427.5 434h-80c-4.143 0-7.5-3.358-7.5-7.5s3.357-7.5 7.5-7.5h80c4.143 0 7.5 3.358 7.5 7.5s-3.357 7.5-7.5 7.5z"/>
            </g>
        </g>
    </g>
</symbol></svg>