<?xml version="1.0" encoding="utf-8"?><svg viewBox="0 0 512 512" xmlns="http://www.w3.org/2000/svg" xmlns:xlink="http://www.w3.org/1999/xlink"><style>:root>svg{display:none}:root>svg:target{display:block}</style><svg fill="none" viewBox="0 0 32 32" id="Cart1" xmlns="http://www.w3.org/2000/svg">
    <path d="M3 4.25a.75.75 0 0 0 0 1.5v-1.5ZM7 5l.739-.13A.75.75 0 0 0 7 4.25V5Zm3 17-.739.13a.75.75 0 0 0 .739.62V22Zm16 .75a.75.75 0 0 0 0-1.5v1.5Zm-16-6.833a.75.75 0 0 0 0 1.5v-1.5Zm15.59.75v-.75.75Zm.49-.402.736.147-.735-.147Zm1.8-9-.735-.147.736.147Zm-.49-.598v.75-.75ZM8 5.917a.75.75 0 1 0 0 1.5v-1.5ZM11.25 26a.25.25 0 0 1-.25.25v1.5A1.75 1.75 0 0 0 12.75 26h-1.5Zm-.25.25a.25.25 0 0 1-.25-.25h-1.5c0 .966.784 1.75 1.75 1.75v-1.5Zm-.25-.25a.25.25 0 0 1 .25-.25v-1.5A1.75 1.75 0 0 0 9.25 26h1.5Zm.25-.25a.25.25 0 0 1 .25.25h1.5A1.75 1.75 0 0 0 11 24.25v1.5Zm14.25.25a.25.25 0 0 1-.25.25v1.5A1.75 1.75 0 0 0 26.75 26h-1.5Zm-.25.25a.25.25 0 0 1-.25-.25h-1.5c0 .966.784 1.75 1.75 1.75v-1.5Zm-.25-.25a.25.25 0 0 1 .25-.25v-1.5A1.75 1.75 0 0 0 23.25 26h1.5Zm.25-.25a.25.25 0 0 1 .25.25h1.5A1.75 1.75 0 0 0 25 24.25v1.5Zm-22-20h4v-1.5H3v1.5Zm3.261-.62 3 17 1.478-.26-3-17-1.478.26ZM10 22.75h16v-1.5H10v1.5Zm0-5.333h15.59v-1.5H10v1.5Zm15.59 0c.289 0 .569-.1.792-.283l-.95-1.16a.25.25 0 0 1 .159-.057l-.002 1.5Zm.792-.283a1.25 1.25 0 0 0 .434-.722l-1.47-.294a.25.25 0 0 1 .086-.145l.95 1.16Zm.434-.722 1.8-9-1.47-.294-1.8 9 1.47.294Zm1.8-9a1.25 1.25 0 0 0-.013-.548l-1.455.363a.249.249 0 0 1-.003-.11l1.471.295Zm-.013-.548a1.25 1.25 0 0 0-.246-.49l-1.16.951a.25.25 0 0 1-.05-.098l1.456-.363Zm-.246-.49a1.25 1.25 0 0 0-.433-.337l-.64 1.356a.249.249 0 0 1-.087-.068l1.16-.951Zm-.433-.337a1.25 1.25 0 0 0-.534-.12v1.5a.25.25 0 0 1-.107-.024l.641-1.356Zm-.534-.12H8v1.5h19.39v-1.5Z" fill="#000"/>
</svg><svg fill="none" viewBox="0 0 66 24" id="Logo1" xmlns="http://www.w3.org/2000/svg">
    <path fill="#fff" d="M0 .564h65.4v22.872H0z"/>
    <path d="M14.183 16.644c-1.056 1.272-6.167 1.42-8.087 1.42-3.792 0-6.096-2.448-6.096-6 0-3.528 2.328-5.976 6.096-5.976 1.824 0 7.079 1.196 8.135 2.468l-5.399 1.492c-.768-.84-1.608-1.176-2.736-1.176-1.608 0-3 1.296-3 3.192 0 2.064 1.296 3.216 3 3.216 1.008 0 2.16-.384 2.784-1.176l5.303 2.54ZM28.803 6.876l-6.983 16.56h-3.433l2.232-5.16-4.823-11.4h3.407l2.4 6.096.696 2.184.672-2.184 2.4-6.096h3.433ZM36.65 9.42c-1.729 0-2.977 1.32-2.977 3.12 0 1.776 1.248 3.096 2.976 3.096 1.68 0 2.832-1.248 2.832-3.096 0-1.872-1.152-3.12-2.832-3.12Zm-5.977 8.736V.564h3.048v6.264l-.048.816c.504-.672 2.04-1.056 3.096-1.056 3.768 0 5.88 2.76 5.88 5.952 0 3.6-2.16 5.928-5.88 5.928-.912 0-2.376-.432-2.976-1.152l.024.648v.192h-3.144ZM55.338 16.716c-.888 1.152-2.928 1.848-4.68 1.848-3.816 0-5.952-2.616-5.952-6 0-3.456 2.112-5.976 5.832-5.976 3.696 0 5.808 2.52 5.808 5.976 0 .384 0 .624-.024.96h-8.496c.168 1.416 1.224 2.304 2.832 2.304 1.152 0 2.232-.384 2.904-1.128l1.776 2.016Zm-7.464-5.256h5.28c-.144-1.272-1.2-2.136-2.616-2.136-1.416 0-2.544.864-2.664 2.136ZM64.752 9.708c-.624-.216-1.176-.288-1.824-.288-.432 0-.792.024-1.128.168v8.568h-3.096V7.38c.936-.48 2.544-.816 4.104-.816.672 0 1.872.072 2.592.336l-.648 2.808Z" fill="#000"/>
</svg><svg fill="none" viewBox="0 0 32 32" id="favorites" xmlns="http://www.w3.org/2000/svg">
    <path d="m15.488 24.69-.393.639.003.002.39-.641Zm1.024 0 .39.64.003-.001-.393-.639ZM16 10l-.601.449a.75.75 0 0 0 1.202 0L16 10Zm-5-3.75c-3.168 0-5.75 2.545-5.75 5.7h1.5c0-2.313 1.896-4.2 4.25-4.2v-1.5Zm-5.75 5.7c0 1.212.243 3.207 1.614 5.587 1.37 2.375 3.84 5.092 8.231 7.792l.786-1.278c-4.222-2.595-6.495-5.144-7.717-7.263-1.22-2.116-1.414-3.843-1.414-4.838h-1.5Zm9.848 13.38c.272.166.584.254.902.254v-1.5a.235.235 0 0 1-.122-.035l-.78 1.282Zm.902.254c.318 0 .63-.088.902-.253l-.78-1.282a.235.235 0 0 1-.122.035v1.5Zm.905-.255c4.391-2.7 6.862-5.417 8.23-7.793 1.372-2.379 1.615-4.374 1.615-5.586h-1.5c0 .995-.195 2.722-1.414 4.838-1.222 2.119-3.495 4.668-7.717 7.263l.786 1.278ZM26.75 11.95c0-3.155-2.582-5.7-5.75-5.7v1.5c2.354 0 4.25 1.887 4.25 4.2h1.5ZM21 6.25c-1.642 0-3.06.883-4.014 1.673a11.086 11.086 0 0 0-1.552 1.583l-.024.031-.007.01-.003.002v.002L16 10l.6.449.003-.003.015-.02.066-.082a9.584 9.584 0 0 1 1.26-1.266C18.8 8.367 19.88 7.75 21 7.75v-1.5ZM16 10l.6-.449v-.002l-.003-.003-.007-.009a4.386 4.386 0 0 0-.11-.139 11.086 11.086 0 0 0-1.467-1.476c-.952-.79-2.371-1.672-4.013-1.672v1.5c1.12 0 2.2.617 3.057 1.327a9.584 9.584 0 0 1 1.325 1.35l.015.019.002.003L16 10Z" fill="#000"/>
</svg><svg fill="none" viewBox="0 0 24 25" id="heart" xmlns="http://www.w3.org/2000/svg">
    <path fill-rule="evenodd" clip-rule="evenodd" d="M12.692 7.584a1 1 0 0 1-1.384 0l-.693-.665A4.5 4.5 0 0 0 3 10.166c0 2.383 1.29 4.35 3.152 5.967 1.863 1.618 4.091 2.691 5.423 3.239.278.114.572.114.85 0 1.332-.548 3.56-1.62 5.423-3.239C19.71 14.517 21 12.55 21 10.167a4.5 4.5 0 0 0-7.615-3.248l-.693.665ZM12 5.476a6.5 6.5 0 0 0-11 4.69c0 6.369 6.97 9.886 9.814 11.055a3.096 3.096 0 0 0 2.372 0C16.03 20.051 23 16.535 23 10.167a6.5 6.5 0 0 0-11-4.69Z" fill="#141718"/>
</svg><svg fill="none" viewBox="0 0 24 24" id="heart-line" xmlns="http://www.w3.org/2000/svg">
    <path d="M12.001 4.529a5.998 5.998 0 0 1 8.242.228 6 6 0 0 1 .236 8.236l-8.48 8.492-8.478-8.492a6 6 0 0 1 8.48-8.464Zm6.826 1.641a3.998 3.998 0 0 0-5.49-.153l-1.335 1.198-1.336-1.197a4 4 0 0 0-5.686 5.605L12 18.654l7.02-7.03a4 4 0 0 0-.193-5.454Z" fill="#000"/>
</svg><svg fill="none" viewBox="0 0 24 24" id="id-card-line" xmlns="http://www.w3.org/2000/svg">
    <path d="M3 6h18v12H3V6ZM2 4a1 1 0 0 0-1 1v14a1 1 0 0 0 1 1h20a1 1 0 0 0 1-1V5a1 1 0 0 0-1-1H2Zm11 4h6v2h-6V8Zm5 4h-5v2h5v-2Zm-7.5-2a2.5 2.5 0 1 1-5 0 2.5 2.5 0 0 1 5 0ZM8 13.5A3.5 3.5 0 0 0 4.5 17h7A3.5 3.5 0 0 0 8 13.5Z" fill="#000"/>
</svg><svg version="1.0" viewBox="0 0 265 265" id="logo" xmlns="http://www.w3.org/2000/svg">
    <path d="M116 2.2c-7.5 3.9-8.4 6-9 21.1-.3 7.3-1 14-1.4 15.1-1.2 2.4-10.2 6.6-14.5 6.6-2.9 0-4.6-1.2-12-8.4-9-8.9-11.9-10.6-17.8-10.6-5.7 0-9.4 2.5-20.5 13.8C24.4 56.4 24.1 61.2 38.5 76c4.6 4.7 8.6 9.6 9 11.1.7 2.9-2.7 13-5.2 15.1-1.1.9-5.9 1.5-14.7 1.8-14.3.6-17.8 1.7-22 7.3-2 2.7-2.1 4.1-2.1 21.2 0 17 .2 18.6 2.1 21.1 4.6 6.2 6.4 6.9 20.9 7.4 12.1.5 13.6.7 15.7 2.7 3.1 2.9 6.2 11.5 5.3 14.5-.4 1.3-4.5 6.1-9 10.8-9.7 10-11.6 14.2-9.6 21.3 1 3.3 3.8 6.7 13.4 16.3 10 9.9 12.8 12.2 15.8 12.7 7.1 1.1 10.4-.6 19.8-9.6 10.3-9.9 12.6-10.8 19.9-7.7 8.3 3.6 8.6 4.3 9.2 19.5.5 14.5 1.2 16.3 7.4 20.9 2.3 1.8 4.2 2.1 12.9 2.1h10.2l.5-18.5.5-18.5 24.9-.3 24.9-.2 8.1 8.6 8.1 8.6v5.9c0 5.3.3 6.2 3.3 9.1 2.6 2.7 4 3.3 7.5 3.3 5.4 0 9.4-2.6 11.4-7.3 1.3-3.2 1.4-4.2.2-7.7-2.1-5.8-7-8.9-13.3-8.1l-4.9.5-9.1-9.4-9.1-9.5H138v-34h-7.4c-4 0-8.9-.2-10.7-.5-2.6-.4-2.9-.3-1.4.4 1.1.5 4.6 1.3 7.8 1.6l5.7.8-.2 34.6-.3 34.6-4.7.3c-5.8.4-11.1-1.9-12.7-5.4-.6-1.4-1.1-7.3-1.1-13.2 0-14.6-1.8-18.3-10.9-23-11.1-5.6-15.1-4.5-27.2 7.4-8.3 8.1-8.8 8.4-13.3 8.4-4.6 0-4.8-.2-14.8-10.3-5.5-5.6-10.7-11.2-11.6-12.5-2.7-4.1-.9-7.9 8.2-17.2 10.1-10.3 11.6-14 9.2-22.4-2-6.8-5.2-11.4-9.6-13.7-2.7-1.5-5.7-1.9-14.1-1.9-19 0-19.9-1.1-19.9-22.9V117l2.9-3.2 2.9-3.3 13.4-.5c10.6-.4 14-.9 16.1-2.3 3.5-2.2 6.2-6.7 8.3-13.2 2.6-8.1 1-11.9-9.2-22.5-6.6-6.8-8.6-9.6-9.1-12.5-.6-3.6-.3-3.9 11.4-15.6 15.8-15.8 16.1-15.8 31.1-1.4 3.5 3.3 7.3 6.5 8.5 7.2 3.5 2 10 1.5 15.8-1.1C111 44.2 113 40 113 23.9c0-10.5.1-11 2.9-14.1 2.5-2.9 3.5-3.2 9.5-3.6l6.6-.4v69.8l-3.7 1.1-3.8 1 4.5-.2c10-.4 8.9 1.6 9.2-16.8l.3-16.2 26.8-.5 26.9-.5 2-2.5c1.1-1.4 4.9-5.5 8.4-9.2l6.4-6.7 5.3.6c4.7.5 5.6.2 8.4-2.1 4.5-3.8 5.8-8.3 3.8-13.2-2.4-5.9-5.9-7.9-13.2-7.5-1.3.1-3.7 1.4-5.5 3-3 2.7-3.3 3.4-3.3 8.9v6l-7.9 8.6-7.8 8.6H138V20.2c0-12.5-.4-18.2-1.2-19-.7-.7-4.2-1.2-8.8-1.2-5.9 0-8.6.5-12 2.2zm104.7 9.4c1.5 2.4 1.5 2.9.2 5.3-2.8 5-10.9 3.2-10.9-2.5 0-5.5 7.6-7.5 10.7-2.8zm-1.5 234.6c2.7 2.2 3 5.3.7 8.1-2.4 3.2-5.2 3.4-7.9.7s-2.6-6.5.2-8.4c2.7-1.9 4.9-2 7-.4z"/>
    <path d="M242.3 45.1c-1.8.5-4.5 2.5-6 4.4l-2.8 3.5h-34l-11.8 11.7-11.8 11.8 3.7.3c3.5.3 4.3-.2 12.8-8.7l9.1-9.1h32.4l1.6 3c3 5.9 11.8 7.9 17 3.8 3.6-2.8 5.6-7.8 4.9-11.8-.7-3.3-5.7-9-7.9-9-.7 0-1.9-.2-2.7-.4-.7-.2-2.8 0-4.5.5zm8.2 8.3c3.7 5.6-3.6 11.5-8.7 6.9-1-.9-1.8-2.6-1.8-3.9 0-5.3 7.6-7.5 10.5-3zM91 121c-4.6 9.1-14 30.2-14 31.5 0 1.1 1.1 1.5 3.8 1.5 3.4 0 4-.4 5.5-3.5L88 147h18.6l1.7 3.5c1.5 3.1 2.1 3.5 5.7 3.5 2.2 0 4-.5 4-1 0-.6-3.7-8.9-8.1-18.5l-8.1-17.5h-4.4c-4.1 0-4.5.3-6.4 4zm9.4 12.2c1.3 2.9 2.1 5.6 1.9 6-.6 1.1-9.1 1-9.7-.1-.7-1 3.5-11.1 4.6-11.1.5 0 1.9 2.4 3.2 5.2zM132 135.5V154l16.8-.2 16.7-.3v-8l-12.2-.3-12.2-.3-.3-13.7-.3-13.7-4.2-.3-4.3-.3v18.6zM171 121.5v4.5h14v28h9v-28h14v-9h-37v4.5zM222 130.7c0 15.5 1 18.7 7.2 22 4.7 2.4 18 2.4 23 0 6.5-3.3 7.3-5.4 7.6-21.5l.4-14.2H251v12.5c0 15.4-.7 16.5-9.9 16.5-9.4 0-10-.9-10.3-16l-.3-12.5-4.2-.3-4.3-.3v13.8zM175 187.7c0 .5 5.5 6.1 12.2 12.5l12.3 11.7 17.8.1c13.9 0 17.7.3 17.7 1.3 0 2.5 5.7 6.8 9.6 7.4 3 .4 4.7-.1 7.4-1.9 8.6-5.8 6.3-18.9-3.8-21.5-4.2-1-10.1 1.5-12.4 5.3l-2 3.4h-32.3l-9.5-9.5c-8.6-8.6-9.8-9.5-13.2-9.5-2.1 0-3.8.3-3.8.7zm74.9 17.9c2.7 3.4 2.6 4-.4 6.9-2.9 3-4.9 3.1-7.5.5-2.7-2.7-2.6-6.5.2-8.4 3.2-2.3 5.4-2 7.7 1z"/>
</svg><svg fill="none" viewBox="0 0 25 24" id="search" xmlns="http://www.w3.org/2000/svg">
    <path d="m20.933 20-3.778-3.784m2.094-5.058a7.158 7.158 0 1 1-14.316 0 7.158 7.158 0 0 1 14.316 0v0Z" stroke="#989898" stroke-width="1.5" stroke-linecap="round"/>
</svg><svg fill="none" viewBox="0 0 24 24" id="search-line" xmlns="http://www.w3.org/2000/svg">
    <path d="m18.031 16.617 4.283 4.282-1.415 1.415-4.282-4.283A8.96 8.96 0 0 1 11 20c-4.968 0-9-4.032-9-9s4.032-9 9-9 9 4.032 9 9a8.96 8.96 0 0 1-1.969 5.617Zm-2.006-.742A6.977 6.977 0 0 0 18 11c0-3.867-3.133-7-7-7s-7 3.133-7 7 3.133 7 7 7a6.977 6.977 0 0 0 4.875-1.975l.15-.15Z" fill="#000"/>
</svg><svg fill="none" viewBox="0 0 32 32" id="user" xmlns="http://www.w3.org/2000/svg">
    <path d="M23.25 27a.75.75 0 0 0 1.5 0h-1.5Zm.75-2.667h.75H24ZM19.467 19v-.75.75Zm-7.934 0v-.75.75ZM7 24.333h-.75H7ZM6.25 27a.75.75 0 0 0 1.5 0h-1.5Zm18.5 0v-2.667h-1.5V27h1.5Zm0-2.667c0-1.577-.532-3.11-1.506-4.257l-1.143.972c.725.854 1.149 2.034 1.149 3.285h1.5Zm-1.506-4.257c-.978-1.15-2.333-1.826-3.777-1.826v1.5c.96 0 1.911.448 2.634 1.298l1.143-.972Zm-3.777-1.826h-7.934v1.5h7.934v-1.5Zm-7.934 0c-1.444 0-2.799.676-3.777 1.826l1.143.972c.723-.85 1.674-1.298 2.634-1.298v-1.5Zm-3.777 1.826c-.974 1.147-1.506 2.68-1.506 4.257h1.5c0-1.251.424-2.431 1.15-3.285l-1.144-.972ZM6.25 24.333V27h1.5v-2.667h-1.5Zm14-14.833a3.75 3.75 0 0 1-3.75 3.75v1.5c2.9 0 5.25-2.35 5.25-5.25h-1.5Zm-3.75 3.75a3.75 3.75 0 0 1-3.75-3.75h-1.5c0 2.9 2.35 5.25 5.25 5.25v-1.5ZM12.75 9.5a3.75 3.75 0 0 1 3.75-3.75v-1.5a5.25 5.25 0 0 0-5.25 5.25h1.5Zm3.75-3.75a3.75 3.75 0 0 1 3.75 3.75h1.5c0-2.9-2.35-5.25-5.25-5.25v1.5Z" fill="#000"/>
</svg><svg fill="none" viewBox="0 0 24 24" id="user-star-line" xmlns="http://www.w3.org/2000/svg">
    <path d="M12 14v2a6 6 0 0 0-6 6H4a8 8 0 0 1 8-8Zm0-1c-3.315 0-6-2.685-6-6s2.685-6 6-6 6 2.685 6 6-2.685 6-6 6Zm0-2c2.21 0 4-1.79 4-4s-1.79-4-4-4-4 1.79-4 4 1.79 4 4 4Zm6 10.5-2.939 1.545.561-3.273-2.377-2.317 3.286-.477L18 14l1.47 2.977 3.285.478-2.377 2.318.56 3.272L18 21.5Z" fill="#000"/>
</svg><svg viewBox="0 0 497 497" id="website" xmlns="http://www.w3.org/2000/svg">
    <path d="M497 128.5v312c0 11.046-8.954 20-20 20H20c-11.046 0-20-8.954-20-20v-312z" fill="#faf8f8"/>
    <path d="M290.498 294.5c0-23.196-18.804-42-42-42a41.823 41.823 0 0 0-19.482 4.782c-13.386 7.021-19.327 21.053-19.327 37.218 0 23.196 15.613 36.457 38.809 36.457 16.214 0 30.282-3.645 37.282-17.099a41.814 41.814 0 0 0 4.718-19.358z" fill="#dc4955"/>
    <path d="M286.468 312.47c-6.73 14.21-21.2 24.03-37.97 24.03-23.2 0-42-18.8-42-42 0-16.77 9.82-31.24 24.03-37.97-2.59 5.45-4.03 11.54-4.03 17.97 0 23.2 18.8 42 42 42 6.43 0 12.52-1.44 17.97-4.03z" fill="#d82f3c"/>
    <path d="M429.496 294.5c0-23.196-18.804-42-42-42a41.823 41.823 0 0 0-19.482 4.782c-13.386 7.021-19.327 21.053-19.327 37.218 0 23.196 15.613 36.457 38.809 36.457 16.214 0 30.282-3.645 37.282-17.099a41.814 41.814 0 0 0 4.718-19.358z" fill="#b7e546"/>
    <path d="M425.466 312.47c-6.73 14.21-21.2 24.03-37.97 24.03-23.2 0-42-18.8-42-42 0-16.77 9.82-31.24 24.03-37.97-2.59 5.45-4.03 11.54-4.03 17.97 0 23.2 18.8 42 42 42 6.43 0 12.52-1.44 17.97-4.03z" fill="#abd641"/>
    <path d="M497 148.5v-20l-276.011-12.798L0 128.5v312c0 11.046 8.954 20 20 20h15c-8.28 0-15-6.72-15-15v-291a6 6 0 0 1 6-6z" fill="#f0e9e6"/>
    <path d="M497 56.5V129H0V56.5c0-11.046 8.954-20 20-20h457c11.046 0 20 8.954 20 20z" fill="#5d748a"/>
    <g fill="#3f597d">
        <path d="M227.758 108.5c-8.255 0-14.947-6.716-14.947-15s6.692-15 14.947-15h208.315c8.255 0 14.947 6.716 14.947 15s-6.692 15-14.947 15z"/>
        <ellipse cx="160.869" cy="93.5" rx="14.947" ry="15"/>
        <path d="m171.361 104.184 12.874-12.869-13.139 1.179zM150.592 82.608l12.562-12.516-2.693 10.408z"/>
        <ellipse cx="98.034" cy="93.5" rx="14.947" ry="15"/>
        <path d="m108.553 104.157 12.382-12.499-12.674.836zM87.757 82.608l12.371-12.459L97.626 80.5z"/>
        <ellipse cx="32.947" cy="93.5" rx="14.947" ry="15"/>
        <path d="M43.769 103.846 56.49 90.66l-13.139 1.381zM22.67 82.608 34.292 70.57l-1.753 9.93z"/>
    </g>
    <ellipse cx="173.849" cy="80.5" fill="#b7e546" rx="14.947" ry="15"/>
    <path d="m217.514 82.577 12.971-12.991-3.025 14.276zM446.83 103.915l13.149-13.179-10.185 3.381z" fill="#3f597d"/>
    <ellipse cx="110.946" cy="80.5" fill="#ffbf54" rx="14.947" ry="15"/>
    <ellipse cx="45.495" cy="80.5" fill="#dc4955" rx="14.947" ry="15"/>
    <path d="M240.737 95.5c-8.255 0-14.947-6.716-14.947-15s6.692-15 14.947-15h208.315c8.255 0 14.947 6.716 14.947 15s-6.692 15-14.947 15z" fill="#faf8f8"/>
    <path d="m135.893 215 226.628 2c5.523 0 10-4.477 10-10l3.479-7v-30c0-5.523-4.477-10-10-10H142l-6.107 5c-5.523 0-10 4.477-10 10v30c0 5.523 4.477 10 10 10z" fill="#aad8de"/>
    <path d="M376 200v10c0 5.523-4.477 10-10 10H132c-5.523 0-10-4.477-10-10v-40c0-5.523 4.477-10 10-10h10v33a7 7 0 0 0 7 7z" fill="#94ccd4"/>
    <path d="M151.5 294.5c0-23.196-18.804-42-42-42a41.823 41.823 0 0 0-19.482 4.782c-13.386 7.021-19.327 21.053-19.327 37.218 0 23.196 15.613 36.457 38.809 36.457 16.214 0 30.282-3.645 37.282-17.099A41.814 41.814 0 0 0 151.5 294.5z" fill="#ffbf54"/>
    <path d="M147.47 312.47c-6.73 14.21-21.2 24.03-37.97 24.03-23.2 0-42-18.8-42-42 0-16.77 9.82-31.24 24.03-37.97-2.59 5.45-4.03 11.54-4.03 17.97 0 23.2 18.8 42 42 42 6.43 0 12.52-1.44 17.97-4.03z" fill="#ffa442"/>
    <path d="M149.5 374h-70a7.5 7.5 0 0 1 0-15h70a7.5 7.5 0 0 1 0 15zM149.5 404h-80a7.5 7.5 0 0 1 0-15h80a7.5 7.5 0 0 1 0 15zM149.5 434h-80a7.5 7.5 0 0 1 0-15h80a7.5 7.5 0 0 1 0 15zM288.5 374h-70a7.5 7.5 0 0 1 0-15h70c4.143 0 7.5 3.358 7.5 7.5s-3.357 7.5-7.5 7.5zM288.5 404h-80a7.5 7.5 0 0 1 0-15h80c4.143 0 7.5 3.358 7.5 7.5s-3.357 7.5-7.5 7.5zM288.5 434h-80a7.5 7.5 0 0 1 0-15h80c4.143 0 7.5 3.358 7.5 7.5s-3.357 7.5-7.5 7.5zM427.5 374h-70c-4.143 0-7.5-3.358-7.5-7.5s3.357-7.5 7.5-7.5h70c4.143 0 7.5 3.358 7.5 7.5s-3.357 7.5-7.5 7.5zM427.5 404h-80c-4.143 0-7.5-3.358-7.5-7.5s3.357-7.5 7.5-7.5h80c4.143 0 7.5 3.358 7.5 7.5s-3.357 7.5-7.5 7.5zM427.5 434h-80c-4.143 0-7.5-3.358-7.5-7.5s3.357-7.5 7.5-7.5h80c4.143 0 7.5 3.358 7.5 7.5s-3.357 7.5-7.5 7.5z" fill="#f0e9e6"/>
</svg></svg>